<?xml version="1.0" encoding="UTF-8"?> <svg xmlns="http://www.w3.org/2000/svg" width="293" height="67" viewBox="0 0 586.37 135.28"><title>klaviyo-logo</title><path d="M278.12,99.71H262.21L245.59,75.22l-.22.07V99.64H232.55V35.93h12.74V60.7l.27.1,15.75-24.91h15l-20.69,31.5Z" fill="#222620"></path><path d="M403.38,71.2l13.08-35.31H431l-26.88,66.17h-1.41L375.86,35.93h14.46Z" fill="#222620"></path><path d="M497.89,99.7H485.26c-.31-.43-.17-.88-.17-1.3q0-13,0-26a4.74,4.74,0,0,0-.8-2.68q-10.44-16.41-20.84-32.85c-.17-.27-.32-.54-.54-.91h15.6l13,21.81,13-21.84h15.7c-.46.73-.85,1.37-1.25,2Q508.66,54,498.39,70.12a3.17,3.17,0,0,0-.52,1.79q0,13.19,0,26.39Z" fill="#222620"></path><path d="M300.39,87H320.6V99.68h-33V35.89h12.74Z" fill="#222620"></path><path d="M453.25,99.68H440.62V35.91h12.63Z" fill="#222620"></path><path d="M147.77,29.36a54.48,54.48,0,0,1,7,4.79c-.05.55-.5.55-.88.61a10.13,10.13,0,0,1-1.56,0q-52.29,0-104.58,0A7.85,7.85,0,0,1,46,34.74c-.38-.09-1-.05-.75-.77l6.94-4.63a15.4,15.4,0,0,0,2.63.12h90.28A19.22,19.22,0,0,0,147.77,29.36Z" fill="#60bc7e"></path><path d="M45.29,34a.45.45,0,0,0,.48.43h107.5c.49,0,1,.21,1.47-.25,1.72.77,3.09,2.11,4.76,3-.15.66-.7.7-1.21.77a13.26,13.26,0,0,1-1.67,0H123.21c-1.12,0-2.23-.15-3.34-.13-2.44-.37-4.86-.79-7.31-1.1A100,100,0,0,0,92,36.22,112,112,0,0,0,71.7,39.94c-4.31.3-8.61.11-12.92.13-6.43,0-12.86,0-19.29,0A6.16,6.16,0,0,1,37.94,40c-.39-.11-.83-.22-.59-.8Z" fill="#64bd7f"></path><path d="M147.77,29.36a.83.83,0,0,1-.87.49c-.28,0-.56,0-.84,0H53.94c-.6,0-1.32.28-1.71-.5l6-4a14.16,14.16,0,0,1,3-.23h78a10.48,10.48,0,0,1,2.5.21Z" fill="#59bb7c"></path><path d="M146.07,76.7A20.54,20.54,0,0,1,150,80c0,.65-.56.58-1,.65a9,9,0,0,1-1.56,0q-47.32,0-94.65,0A8.23,8.23,0,0,1,51,80.57c-.43-.1-.93-.18-.69-.84a22.63,22.63,0,0,1,3.63-3.06,12.17,12.17,0,0,1,2.26-.18h87.37A11.06,11.06,0,0,1,146.07,76.7Z" fill="#a1cb82"></path><path d="M44.54,85.5a20.84,20.84,0,0,1,2.9-3.11,23.75,23.75,0,0,0,2.39.11q50.78,0,101.54,0a3.4,3.4,0,0,0,1.19,0,16,16,0,0,1,3.17,3.3,2,2,0,0,1-1.58.4q-21.71,0-43.41,0a42.19,42.19,0,0,1-4.76-.37,71.05,71.05,0,0,0-11.94,0c-1.7.17-3.4.38-5.12.38q-21.21,0-42.43,0C45.81,86.15,44.93,86.47,44.54,85.5Z" fill="#a9cd80"></path><path d="M64.24,21.44c2.1-1.54,4.27-3,6.48-4.31a5.86,5.86,0,0,0,1.67.08c18.73,0,37.46.05,56.19,0a2.38,2.38,0,0,0,.71-.08,67.48,67.48,0,0,1,6.19,4.15,2.3,2.3,0,0,0,.52.26c.18.62-.33.63-.68.72a6.21,6.21,0,0,1-1.43.07H66.38a6.16,6.16,0,0,1-1.55-.09C64.44,22.13,64,22,64.24,21.44Z" fill="#4eba7a"></path><path d="M64.24,21.44c0,.25.14.46.44.47s.64,0,1,0h69c.46,0,1.08.32,1.36-.39q2.87,1.92,5.75,3.82c-.39.31-.85.17-1.27.17H59.55c-.43,0-.89.13-1.28-.17Z" fill="#53bb7b"></path><path d="M152.56,82.46a.46.46,0,0,1-.49.42h-.84q-51.19,0-102.4,0c-.47,0-1.17.37-1.39-.48a20.66,20.66,0,0,1,2.87-2.66.51.51,0,0,0,.54.51h97.54c.53,0,1.13.24,1.57-.29A11.91,11.91,0,0,1,152.56,82.46Z" fill="#a4cc81"></path><path d="M114.87,7.59c2.7,1.56,5.24,3.36,7.77,5.18.28.2.59.37.88.56.2.35,0,.52-.29.65a2.81,2.81,0,0,1-1.18.18H78A2.94,2.94,0,0,1,76.84,14c-.32-.13-.57-.32-.36-.72l8.66-5.7c9.35.11,18.71,0,28.06,0A8.46,8.46,0,0,0,114.87,7.59Z" fill="#45b978"></path><path d="M146.07,76.7c-.39.33-.85.18-1.27.18q-44.81,0-89.61,0c-.42,0-.89.16-1.25-.21A27.59,27.59,0,0,1,57.52,74a10.53,10.53,0,0,0,2.38.1q40.51,0,81,0a4.43,4.43,0,0,0,1.54,0A16.92,16.92,0,0,1,146.07,76.7Z" fill="#9bca83"></path><path d="M76.48,13.28c.18.79.83.48,1.28.48q14,0,27.91,0c5.55,0,11.1,0,16.65,0,.42,0,1,.28,1.2-.43a61,61,0,0,1,5.77,3.79c-.18.79-.83.48-1.28.48-5.32,0-10.63,0-15.95,0q-20,0-39.93,0c-.48,0-1.17.38-1.41-.46Z" fill="#49b979"></path><path d="M60.14,72.28a20.59,20.59,0,0,1,4.35-2.55,15.29,15.29,0,0,0,2.62,0q33.21,0,66.41,0a5,5,0,0,0,2,0,21.32,21.32,0,0,1,4.36,2.54c0,.57-.47.57-.84.64a7.71,7.71,0,0,1-1.44,0Q100,73,62.43,73a7.68,7.68,0,0,1-1.44,0C60.62,72.85,60.16,72.85,60.14,72.28Z" fill="#95c884"></path><path d="M135.52,69.73c-.24.76-.87.43-1.32.43q-16.56,0-33.12,0-17.62,0-35.27,0c-.45,0-1.08.33-1.32-.43A33,33,0,0,1,70,67c1.11.1,2.23.15,3.35.15q26.67,0,53.33,0c1.12,0,2.23-.07,3.35-.11C132,67.56,133.66,68.89,135.52,69.73Z" fill="#90c784"></path><path d="M60.14,72.28c.32.44.8.28,1.22.29h77.3c.42,0,.9.15,1.22-.3l2.6,1.78c-.19.71-.78.43-1.2.43-5.71,0-11.43,0-17.14,0q-32.62,0-65.23,0c-.48,0-1.18.37-1.39-.48A14.75,14.75,0,0,1,60.14,72.28Z" fill="#98c984"></path><path d="M114.87,7.59c-.26.47-.71.42-1.15.42H86.29c-.44,0-.9.05-1.15-.43A77.22,77.22,0,0,1,94.5,1.45a11.52,11.52,0,0,1,12.16.61C109.43,3.85,112.14,5.74,114.87,7.59Z" fill="#41b977"></path><path d="M157.59,88a21.09,21.09,0,0,1,3.14,4c-.06.55-.52.53-.89.59a9.76,9.76,0,0,1-1.43,0H127.49a13.67,13.67,0,0,1-2-.17c-2.5-1.41-5.1-2.61-7.72-3.78,0-.65.57-.57,1-.64a11.61,11.61,0,0,1,1.67,0C132.79,88,145.19,88.08,157.59,88Z" fill="#b3d07e"></path><path d="M14.81,54.16l7-4.64a17.2,17.2,0,0,1,2.87-.14c7.47,0,15,0,22.42,0,.64,0,1.49-.33,1.84.63L42,54.59A5,5,0,0,1,40,55H16.54a3.79,3.79,0,0,1-1.3-.13C15,54.73,14.59,54.61,14.81,54.16Z" fill="#78c282"></path><path d="M158.06,54.58l-7.26-4.77a1.83,1.83,0,0,1,1.56-.42h24.45c.49,0,.95.15,1.43.16A64,64,0,0,1,185,54.1c.23.59-.23.67-.6.78A5.3,5.3,0,0,1,183,55H160.16A4.57,4.57,0,0,1,158.06,54.58Z" fill="#78c282"></path><path d="M178.24,49.54c-.4.4-.91.22-1.37.22q-13,0-26.07.05l-7.6-4.11c0-.44.36-.48.66-.56a4.25,4.25,0,0,1,1.07-.07c8.78,0,17.56.07,26.35-.07A69.21,69.21,0,0,1,178.24,49.54Z" fill="#71c081"></path><path d="M48.89,50c-.38-.44-.89-.25-1.35-.25l-24.43,0c-.45,0-1,.19-1.35-.24l7-4.59a11,11,0,0,0,2.5.13c7.86,0,15.73,0,23.59,0,.72,0,1.55-.2,2,.63Z" fill="#71c081"></path><path d="M125.46,92.48a3,3,0,0,1,1.64-.23h32.27c.45,0,1,.19,1.36-.23a11.83,11.83,0,0,1,2.4,3.84,4.06,4.06,0,0,1-2,.4q-14.43,0-28.85,0a3.63,3.63,0,0,1-1.86-.39Z" fill="#bad279"></path><path d="M29.13,65.61l-4,4.33a3.23,3.23,0,0,1-1.73.38H2.19a2.59,2.59,0,0,1-1.72-.39,5.45,5.45,0,0,1,.18-4.79A3.37,3.37,0,0,1,2,65H26.78C27.61,65,28.49,64.87,29.13,65.61Z" fill="#8fc784"></path><path d="M190.24,57.51a62.1,62.1,0,0,1,6.46,4.32c-.33.72-1,.55-1.56.56-2.67,0-5.35,0-8,0H169.26a3.87,3.87,0,0,1-2.09-.38l-4.47-3.86c.46-.67,1.18-.6,1.84-.6,8.33,0,16.66,0,25,0A2.11,2.11,0,0,0,190.24,57.51Z" fill="#83c484"></path><path d="M157.59,88c-.36.63-1,.42-1.51.42l-36.88,0c-.49,0-1-.21-1.46.28A71.18,71.18,0,0,0,106,85.78l49.75,0A8.83,8.83,0,0,1,157.59,88Z" fill="#aecf7f"></path><path d="M44.54,85.5c.42.47,1,.26,1.47.26q24,0,48,0c-2.56.55-5.17.87-7.68,1.66-1.29.41-2.59.8-3.88,1.2a45.65,45.65,0,0,1-5.73.16H45.38a9,9,0,0,1-1.8-.07c-.48-.1-1.07-.11-1.17-.8A14.9,14.9,0,0,1,44.54,85.5Z" fill="#aecf7f"></path><path d="M3.49,61.7c1.88-1.53,4-2.7,6-4,5.59.27,11.18.07,16.77.12,3.12,0,6.24,0,9.35,0a2.26,2.26,0,0,1,1.71.37L32.84,62a3.67,3.67,0,0,1-1.85.38c-8.57,0-17.15,0-25.72,0C4.64,62.38,3.78,62.72,3.49,61.7Z" fill="#83c484"></path><path d="M78.89,63.72a67.19,67.19,0,0,1,12.86-2.64,75.86,75.86,0,0,1,12.79-.32,73.86,73.86,0,0,1,15.89,2.82c.23.06.46.1.69.15.2.59-.26.66-.64.75a5.68,5.68,0,0,1-1.43.08H80.94a5.7,5.7,0,0,1-1.43-.08C79.14,64.38,78.67,64.32,78.89,63.72Z" fill="#88c584"></path><path d="M112,113.38a16.23,16.23,0,0,1,4.4,3.08,1,1,0,0,1-.9.83,6.34,6.34,0,0,1-1.07.07q-14.4,0-28.79,0c-.74,0-1.68.24-2-.88a15,15,0,0,1,4.53-3.12,5.67,5.67,0,0,1,2.34-.37h19.13A5.78,5.78,0,0,1,112,113.38Z" fill="#deda5f"></path><path d="M37.34,58.16H11.14c-.6,0-1.21,0-1.63-.51l5.3-3.5c.27.72.89.39,1.34.4l25.83,0Z" fill="#7ec383"></path><path d="M3.49,61.7c.39.52,1,.3,1.45.3q14,0,27.9,0a41.81,41.81,0,0,1-3.71,3.58,10.5,10.5,0,0,0-3-.24H2c-.45,0-1,.18-1.36-.22A6.8,6.8,0,0,1,3.49,61.7Z" fill="#89c584"></path><path d="M130,67a2.55,2.55,0,0,1-1.79.49H71.75A2.28,2.28,0,0,1,70,67a18.87,18.87,0,0,1,4.11-1.61,6.44,6.44,0,0,0,1.91.07q24.38,0,48.75,0a3.59,3.59,0,0,0,1.18-.1C127.41,65.64,128.63,66.54,130,67Z" fill="#8dc784"></path><path d="M37.35,39.19c.18.79.83.49,1.28.49H69.69a6.49,6.49,0,0,1,2,.26l-8.35,2.89a6,6,0,0,1-1.79.13H35.06a5.26,5.26,0,0,1-1.19-.08c-.44-.1-.88-.22-.84-.82Z" fill="#68be80"></path><path d="M162.65,39.21a50,50,0,0,1,4.3,2.92c-.15.66-.73.67-1.22.76a9.72,9.72,0,0,1-1.79.07H139c-.76,0-1.51-.1-2.27-.12L128.49,40c.6-.82,1.49-.66,2.31-.66,7.74,0,15.49,0,23.23,0C156.9,39.29,159.78,39.41,162.65,39.21Z" fill="#69be80"></path><path d="M79.38,121.29a9.65,9.65,0,0,1,2.1-2.66,5.69,5.69,0,0,1,1.43-.14c11.52,0,23,0,34.58,0a2.7,2.7,0,0,1,1.06.14,10,10,0,0,1,2.11,2.67,2,2,0,0,1-1.58.39H81A2,2,0,0,1,79.38,121.29Z" fill="#e6dc56"></path><path d="M190.24,57.51c-.25.73-.88.4-1.33.41q-12.22,0-24.45,0a5.84,5.84,0,0,0-1.76.24l-4.64-3.58q12.81,0,25.61,0c.45,0,1.09.32,1.29-.46a20.49,20.49,0,0,1,3.67,2.29C189.18,56.74,189.7,57.13,190.24,57.51Z" fill="#7ec383"></path><path d="M79.38,121.29h41.28a8.21,8.21,0,0,1,1.18,1.8.76.76,0,0,1-.73.56,19.05,19.05,0,0,1-3.7.19H82.09a26.67,26.67,0,0,1-3.22-.12l-.77-.52Z" fill="#eadd50"></path><path d="M72.91,93.5l-3.34,2.37a3.8,3.8,0,0,1-1.85.38q-14.43,0-28.85,0a4.76,4.76,0,0,1-2-.4c.22-1.17,1.12-1.93,1.71-2.88a1.5,1.5,0,0,1,.91-.21c10.37.14,20.74,0,31.11.06a8.67,8.67,0,0,1,1.44.05C72.44,92.94,72.9,92.94,72.91,93.5Z" fill="#bad279"></path><path d="M198.67,63.87a4.51,4.51,0,0,1,1.19,2.91c.26.59,0,.91-.57,1a6.22,6.22,0,0,1-1.43.09c-7.87,0-15.73,0-23.6,0a4.11,4.11,0,0,1-1.3-.16,31.39,31.39,0,0,1-3.08-3.13c.58-.77,1.43-.6,2.21-.61q11.85,0,23.72,0A21.1,21.1,0,0,0,198.67,63.87Z" fill="#8dc784"></path><path d="M33,42.06c.31.69.93.51,1.47.51H61.22a6.54,6.54,0,0,1,2.12.27l-6.5,2.88a2.85,2.85,0,0,0-1.63-.26q-12.62,0-25.24,0c-.45,0-1.1.29-1.26-.51Z" fill="#6dbf81"></path><path d="M136.71,42.84c.38-.45.89-.26,1.35-.26H164.9a3.33,3.33,0,0,0,2-.44A23.57,23.57,0,0,1,171.28,45c-.5.54-1.16.45-1.8.45H144.56c-.46,0-1-.18-1.36.24Z" fill="#6cbf81"></path><path d="M78.87,123.72c.34-.42.81-.26,1.23-.26H120c.38,0,.81-.13,1.14.19a18.43,18.43,0,0,1-3.59,2.4c-1.31-.09-2.62,0-3.94,0-10.09,0-20.19,0-30.28,0a1.89,1.89,0,0,0-.82.1Z" fill="#eddf4a"></path><path d="M42.41,87.93a2.92,2.92,0,0,0,2,.48H81.12c.45,0,1-.18,1.36.22l-5,2.22c-3.75.22-7.51.08-11.26.1q-11.88,0-23.75,0c-.7,0-1.46.17-2.05-.4A12.72,12.72,0,0,1,42.41,87.93Z" fill="#b3d07e"></path><path d="M162.65,39.21c-.2.79-.84.47-1.29.47q-15.37,0-30.76,0a6.26,6.26,0,0,0-2.11.29l-8.62-2.17a3,3,0,0,1,1.75-.27h36.07a2.29,2.29,0,0,0,1.81-.42A25.37,25.37,0,0,1,162.65,39.21Z" fill="#64bd7f"></path><path d="M125.93,65.35c-.31.68-.94.5-1.47.5h-49c-.5,0-1.07.15-1.38-.46a26.24,26.24,0,0,1,4.8-1.67c.11.59.58.45,1,.45h40.33c.37,0,.84.14,1-.44A26.94,26.94,0,0,1,125.93,65.35Z" fill="#8cc683"></path><path d="M137.37,102.36l-3.54-3.62a1.69,1.69,0,0,1,1.6-.62q10.71,0,21.43,0c.62,0,1.43-.1,1.5.91a45.64,45.64,0,0,1-5.33,3.49,17.45,17.45,0,0,1-3.68.19H139.21A3,3,0,0,1,137.37,102.36Z" fill="#c4d474"></path><path d="M158.36,99c-.23-.56-.71-.55-1.2-.55H135.23a7.74,7.74,0,0,0-1.4.24l-3.38-2.88h32.68A36.36,36.36,0,0,1,158.36,99Z" fill="#c0d376"></path><path d="M36.9,95.85l32.67,0L66.2,98.75a2.82,2.82,0,0,1-1.41.15c-7.78,0-15.55-.08-23.33,0A43.8,43.8,0,0,1,36.9,95.85Z" fill="#c0d376"></path><path d="M.47,69.93H25.14c-1,1.2-2,2.39-3,3.59a1.42,1.42,0,0,1-.9.24c-5.62-.14-11.25-.19-16.87,0a2.29,2.29,0,0,1-1.15-.26A7.33,7.33,0,0,1,.47,69.93Z" fill="#95c884"></path><path d="M173,67.77a2.89,2.89,0,0,1,1.64-.24h24.83c.44-.17.39-.48.43-.75a4.5,4.5,0,0,1-.51,3.63c-.32.51-.84.39-1.3.39-7.1,0-14.21,0-21.31,0a5.29,5.29,0,0,1-1.19-.13A26.52,26.52,0,0,1,173,67.77Z" fill="#90c784"></path><path d="M175.55,70.68a2.64,2.64,0,0,1,1.51-.27c6.88,0,13.76,0,20.64,0,.55,0,1.1.24,1.65,0A7.15,7.15,0,0,1,196.08,74a3.09,3.09,0,0,1-1.28.23c-5.13-.21-10.26-.15-15.4,0a1.76,1.76,0,0,1-1.14-.24Z" fill="#96c984"></path><path d="M82.48,126.12c.07-.59.52-.51.91-.51h33.29c.35,0,.75-.07.84.44a15.5,15.5,0,0,1-2.87,2,17.71,17.71,0,0,1-2.62.15H87.75a13.54,13.54,0,0,1-2.38-.16Z" fill="#f0df44"></path><path d="M198.67,63.87c-.19.86-.88.53-1.37.53q-12.77,0-25.53,0a6.33,6.33,0,0,0-1.89.24L167.17,62q14.07,0,28.14,0c.46,0,1,.16,1.39-.17A5,5,0,0,1,198.67,63.87Z" fill="#88c584"></path><path d="M118.55,118.62a2.67,2.67,0,0,1-1.5.27H83a2.71,2.71,0,0,1-1.51-.26,11.68,11.68,0,0,1,2.17-2.16,1.55,1.55,0,0,0,1.26.51q15.11,0,30.21,0a1.62,1.62,0,0,0,1.26-.52A7.33,7.33,0,0,1,118.55,118.62Z" fill="#e3db59"></path><path d="M40.41,90.55l35.6,0c.49,0,1.06-.21,1.46.28a12.14,12.14,0,0,1-2.6,1.42,5.43,5.43,0,0,1-2.11.37q-15.65,0-31.29,0c-.78,0-1.63.15-2.2-.62Z" fill="#b6d17c"></path><path d="M41.46,98.92c.26-.48.71-.43,1.15-.43H64.8a7.78,7.78,0,0,1,1.4.25,20.58,20.58,0,0,1-2.68,2.6,14.36,14.36,0,0,1-2.62.17H47.28a17.08,17.08,0,0,1-2-.1A33.2,33.2,0,0,1,41.46,98.92Z" fill="#c4d474"></path><path d="M3.26,73.54C8,73,12.79,73.4,17.56,73.3a19.88,19.88,0,0,1,4.62.23L19.6,76.89a2.85,2.85,0,0,1-1.71.39H10.25a4.61,4.61,0,0,1-2-.37A37.61,37.61,0,0,1,3.26,73.54Z" fill="#9bca83"></path><path d="M112,113.38l-23.8,0a20.15,20.15,0,0,1,7.92-2.79A24.7,24.7,0,0,1,111.5,113,5.22,5.22,0,0,1,112,113.38Z" fill="#d8d964"></path><path d="M178.26,74a130.83,130.83,0,0,1,17.82,0,30.75,30.75,0,0,1-4.34,2.87,4.48,4.48,0,0,1-1.73.37h-8.1a2.45,2.45,0,0,1-1.47-.39Z" fill="#9bca83"></path><path d="M61.63,103.57c-1.36,2-2.9,3.8-4.16,6l-8.81-5.89a.73.73,0,0,1,.8-.72c3.85-.13,7.7-.15,11.56,0C61.31,103,61.66,103.13,61.63,103.57Z" fill="#cdd66e"></path><path d="M85.37,128c.36-.38.83-.22,1.25-.22q13.39,0,26.79,0c.42,0,.89-.16,1.24.23a10.7,10.7,0,0,1-2.16,1.44,17.63,17.63,0,0,1-2.62.15H90.27a14,14,0,0,1-2.74-.17A10.38,10.38,0,0,1,85.37,128Z" fill="#f2e03d"></path><path d="M137.37,102.36l14.88,0a1,1,0,0,1,.78.2,48.9,48.9,0,0,1-4.57,3.1,49.9,49.9,0,0,1-8.38.08Z" fill="#cad570"></path><path d="M87.53,129.43c.37-.36.83-.21,1.26-.21h22.46c.42,0,.89-.16,1.24.23l-2.43,1.62a9.53,9.53,0,0,1-2.14.21H92.09a9,9,0,0,1-2.14-.22Z" fill="#f5e137"></path><path d="M90,131.06c.27-.24.6-.17.91-.17h18.29c.31,0,.64-.07.91.18l-3.12,2.15a44.92,44.92,0,0,1-7.24.19,50.93,50.93,0,0,1-6.42-.11Z" fill="#f7e12f"></path><path d="M61.63,103.57c-.25-.36-.63-.28-1-.28H49.82c-.44,0-.9-.06-1.16.42a25.93,25.93,0,0,1-3.4-2.29c.25-.37.63-.29,1-.29H62.62c.31,0,.65-.07.9.22C62.82,102,62.44,103,61.63,103.57Z" fill="#c7d472"></path><path d="M39.27,92a6.74,6.74,0,0,0,2,.25l33.6,0a8.26,8.26,0,0,1-2,1.22c-.4-.49-1-.28-1.45-.28H41.8A11,11,0,0,1,38.61,93Z" fill="#b7d17b"></path><path d="M8.28,76.91l11.32,0-3.53,5.26C13.46,80.38,10.77,78.79,8.28,76.91Z" fill="#a0cb83"></path><path d="M180.44,76.89l11.3,0L184,82.19Z" fill="#a0cb83"></path><path d="M93.28,133.3c.23-.31.56-.25.88-.25h12.1a.91.91,0,0,1,.68.17A12.55,12.55,0,0,1,93.28,133.3Z" fill="#f9e121"></path><path d="M140.08,105.71c.19-.27.47-.26.75-.26h7.08a1.94,1.94,0,0,1,.55.17l-5.85,4Z" fill="#cfd66d"></path><path d="M553.39,33.49a33.12,33.12,0,1,0,33,33.21A33.1,33.1,0,0,0,553.39,33.49Zm-.8,53.71c-10.83-.19-20-9.56-19.9-20.67a20.53,20.53,0,1,1,19.9,20.67Z" fill="#222620"></path><path d="M358.55,33.52h-1.41L330.27,99.67H344.8c.85-2.29,1.68-4.56,2.49-6.73h21.12c.88,2.3,1.72,4.53,2.57,6.75h14.45Q371.95,66.51,358.55,33.52ZM352,80.78c2-5.46,3.89-10.8,5.91-16.39,2,5.6,3.83,10.94,5.73,16.39Z" fill="#222620"></path></svg> 
